<svg width="41" height="47" viewBox="0 0 41 47" fill="none" xmlns="http://www.w3.org/2000/svg">
<path d="M40.4 23.0883C40.4 32.3864 35.0641 40.849 26.1109 44.472C23.1621 45.6618 19.8122 46.3303 16.148 46.3303H0V0H16.1413C16.5358 0 16.9303 0.00668399 17.3181 0.033422C30.417 0.581551 40.4 10.4211 40.4 23.0949V23.0883Z" fill="black"/>
<path d="M23.7472 33.8185C25.5626 36.0764 26.5004 38.9087 26.3933 41.8079C26.3933 42.7498 26.3129 43.6383 26.1588 44.4733C23.2046 45.6623 19.8485 46.3304 16.1776 46.3304H0V25.9627H9.05007C8.84911 25.3815 8.60795 24.8271 8.3534 24.286C7.64333 22.7028 6.83947 20.9192 6.83947 18.648C6.82607 14.4528 9.51899 10.712 13.5249 9.38932C18.6293 7.70593 24.1492 10.4648 25.844 15.5617C26.5808 17.7061 29.3742 19.2492 32.4825 18.648C32.8174 18.6346 33.1322 18.7548 33.36 18.9953C33.6012 19.2291 33.7284 19.5364 33.7284 19.8704C33.7284 23.3441 27.6526 24.6066 24.1626 24.7536C19.7213 25.0475 19.8217 28.6013 23.7472 33.8185Z" fill="white"/>
<path d="M19.2731 17.0491C20.0919 17.0491 20.7557 16.3854 20.7557 15.5666C20.7557 14.7478 20.0919 14.084 19.2731 14.084C18.4543 14.084 17.7905 14.7478 17.7905 15.5666C17.7905 16.3854 18.4543 17.0491 19.2731 17.0491Z" fill="#FA4135"/>
</svg>
