<svg width="262" height="41" viewBox="0 0 262 41" fill="none" xmlns="http://www.w3.org/2000/svg">
<path d="M248.12 20.2912C252.682 27.1385 257.263 33.9765 261.835 40.8237H251.491C248.569 36.3145 245.646 31.8147 242.733 27.2962C239.929 31.8054 237.126 36.3145 234.322 40.8237H223.96C228.468 33.7723 232.975 26.721 237.492 19.6603C237.437 19.5768 237.373 19.484 237.318 19.3913C236.997 18.9088 236.668 18.4356 236.329 17.9717C235.999 17.5171 235.669 17.0717 235.312 16.6357C234.982 16.2181 234.634 15.8099 234.276 15.4017C233.928 15.012 233.58 14.6316 233.214 14.2605C232.847 13.8893 232.508 13.5553 232.132 13.212C231.775 12.8873 231.4 12.5626 231.024 12.2564C230.648 11.9595 230.273 11.6719 229.888 11.4028C229.512 11.1337 229.118 10.8739 228.724 10.6327C228.339 10.3915 227.936 10.1688 227.533 9.95541C227.139 9.75129 226.736 9.55645 226.324 9.38016C225.921 9.1946 225.508 9.03687 225.087 8.8977C224.675 8.74925 224.253 8.62864 223.823 8.50802C223.392 8.39668 222.971 8.3039 222.531 8.2204C222.091 8.1369 221.661 8.07195 221.221 8.02556C220.781 7.97917 220.332 7.95133 219.883 7.93278C219.434 7.91422 218.985 7.91422 218.527 7.93278C218.371 7.93278 218.216 7.95133 218.069 7.95133V40.8237H208.953V0.17627H218.546C219.169 0.17627 219.792 0.194827 220.415 0.213383C221.019 0.241217 221.624 0.287608 222.229 0.343276C222.815 0.398945 223.401 0.463892 223.988 0.547395C224.556 0.630898 225.115 0.732957 225.683 0.835017C226.773 1.04841 227.845 1.31748 228.908 1.65149C229.421 1.80922 229.924 1.9855 230.428 2.18034C230.923 2.36591 231.418 2.57002 231.894 2.78342C232.371 2.99682 232.847 3.22877 233.305 3.47C233.763 3.71123 234.212 3.97102 234.661 4.24009C235.101 4.50915 235.532 4.78749 235.953 5.09367C236.384 5.39057 236.796 5.70603 237.199 6.03076C237.602 6.3555 237.996 6.68951 238.381 7.04208C238.766 7.39465 239.141 7.75649 239.508 8.1369C239.874 8.5173 240.232 8.90698 240.58 9.30594C240.928 9.7049 241.267 10.1317 241.597 10.5585C242.11 11.3842 242.623 12.2007 243.136 13.0265C245.674 8.73997 248.202 4.45348 250.731 0.166992H261.148C256.805 6.87507 252.453 13.5832 248.111 20.282L248.12 20.2912Z" fill="white"/>
<path d="M203.135 33.0579V40.833H176.145V8.2204H154.569V18.0738H169.704V25.988H154.569V40.833H145.453V20.5139C145.453 20.2448 145.453 19.985 145.425 19.716C145.407 19.4748 145.37 19.2335 145.324 19.0016C145.288 18.7882 145.242 18.5841 145.187 18.3799C145.16 18.2779 145.123 18.1851 145.086 18.083C145.022 17.8975 144.949 17.7119 144.857 17.5356C144.766 17.3779 144.674 17.2109 144.564 17.0717C144.454 16.9325 144.344 16.7934 144.216 16.6728C144.152 16.6171 144.088 16.5614 144.023 16.5058C143.959 16.4501 143.895 16.4037 143.822 16.3573C143.685 16.2645 143.538 16.181 143.391 16.1161C143.245 16.0511 143.08 16.0047 142.924 15.9676C142.768 15.9212 142.603 15.9027 142.439 15.8934C142.274 15.8748 142.1 15.8748 141.935 15.8934C141.797 15.912 141.66 15.9212 141.522 15.9491C141.339 15.9862 141.174 16.0233 141 16.079C140.826 16.1346 140.652 16.1996 140.487 16.2645C140.304 16.3387 140.13 16.4223 139.956 16.5058C139.772 16.5985 139.608 16.6913 139.433 16.8027C139.25 16.914 139.085 17.0346 138.911 17.1552C138.737 17.2851 138.563 17.4243 138.398 17.5635C138.233 17.7026 138.05 17.8604 137.885 18.0088C137.537 18.3335 137.207 18.6676 136.905 19.0387C136.575 19.4191 136.273 19.818 135.989 20.2356C134.862 21.9613 133.323 23.353 131.481 24.3272C129.639 25.2921 127.505 25.8303 125.169 25.8303H117.5V40.8144H75.649V8.2204H51.9474V16.682H67.7698V24.5963H51.9474V33.0579H69.8221V40.833H42.8314V32.5847C42.8314 32.2786 42.8131 31.9817 42.7856 31.6755C42.7673 31.4064 42.7215 31.1281 42.6665 30.859C42.6207 30.6178 42.5566 30.3765 42.4741 30.1446C42.4008 29.9312 42.3092 29.7085 42.1993 29.5137C42.0985 29.3281 41.9885 29.1426 41.8511 28.9755C41.787 28.892 41.7228 28.8178 41.6495 28.7343C41.5762 28.6601 41.503 28.5951 41.4297 28.5209C41.2831 28.391 41.1182 28.2797 40.9441 28.1776C40.7792 28.0756 40.5959 27.9921 40.4127 27.9364C40.3211 27.9086 40.2295 27.8807 40.1287 27.8529C40.0279 27.8343 39.9363 27.8065 39.8355 27.7972C39.6431 27.7601 39.4415 27.7508 39.24 27.7416C39.0293 27.7416 38.8277 27.7601 38.6261 27.7787C38.5162 27.7972 38.4154 27.8065 38.3055 27.8251C38.1131 27.8622 37.9299 27.8993 37.7466 27.955C37.5267 28.0106 37.3069 28.0848 37.0961 28.1684C36.8671 28.2426 36.6472 28.3446 36.4273 28.4374C36.1983 28.5395 35.9692 28.6508 35.7493 28.7714C35.5203 28.9013 35.2913 29.0312 35.0714 29.1611C34.8423 29.3096 34.6133 29.458 34.3934 29.6157C34.1827 29.7642 33.9903 29.9126 33.7887 30.0704C33.5597 30.2467 33.3398 30.4229 33.1199 30.6178C32.671 30.9982 32.2495 31.4157 31.8281 31.8425C31.4067 32.2786 31.0035 32.7517 30.6187 33.2249C30.1606 33.8002 29.6751 34.3569 29.162 34.8672C28.6398 35.3867 28.0901 35.8877 27.5129 36.3517C26.9265 36.8156 26.3127 37.2516 25.6714 37.6506C25.0209 38.0588 24.3521 38.4207 23.6558 38.764C22.9503 39.098 22.2174 39.3949 21.4753 39.6454C20.7057 39.9144 19.9177 40.1278 19.1298 40.3041C18.3053 40.4897 17.4624 40.6196 16.6195 40.7124C15.74 40.8144 14.8513 40.8515 13.9626 40.8515H0.174072V0.17627H14.0084C17.4899 0.17627 20.724 0.927797 23.5733 2.2824C26.4226 3.62773 28.8688 5.58541 30.7653 7.97917C31.1318 8.44307 31.5258 8.88842 31.9289 9.31522C32.332 9.73273 32.7443 10.1317 33.1932 10.5121C33.4039 10.6977 33.6238 10.8647 33.8437 11.0409C34.0361 11.1987 34.2376 11.3471 34.4392 11.4863C34.6591 11.644 34.879 11.7925 35.108 11.9316C35.3279 12.0708 35.5478 12.2007 35.7768 12.3213C35.9967 12.4419 36.2166 12.5533 36.4456 12.6646C36.6655 12.7667 36.8854 12.8502 37.1053 12.9337C37.316 13.0172 37.5359 13.0914 37.7558 13.1471C37.939 13.2027 38.1223 13.2491 38.3055 13.277C38.4063 13.2955 38.5162 13.3141 38.6261 13.3326C38.8369 13.3605 39.0384 13.379 39.2492 13.379C39.4507 13.379 39.6523 13.379 39.8447 13.3419C39.9454 13.3234 40.0371 13.3141 40.1378 13.2955C40.2295 13.277 40.3211 13.2491 40.4127 13.2213C40.5135 13.1935 40.5959 13.1564 40.6876 13.1192C40.7792 13.0821 40.8708 13.045 40.9532 12.9894C41.1273 12.8966 41.2922 12.7852 41.4388 12.6646C41.5946 12.5347 41.732 12.3956 41.8694 12.2378C41.9977 12.0708 42.1168 11.8945 42.2176 11.7182C42.3275 11.5141 42.4191 11.31 42.4924 11.0966C42.5749 10.8647 42.639 10.6327 42.694 10.3915C42.749 10.1317 42.7948 9.86262 42.8131 9.59356C42.8406 9.29666 42.8589 8.99976 42.8589 8.70286V0.17627H101.898V8.2204H84.7741V16.682H100.597V24.5963H84.7741V33.0579H108.476V0.17627H125.187C125.792 0.17627 126.405 0.204104 127.001 0.278329C127.569 0.343276 128.128 0.445335 128.687 0.575229C129.218 0.705122 129.731 0.872128 130.244 1.06697C130.73 1.25253 131.206 1.47521 131.673 1.72572C132.122 1.96695 132.544 2.24529 132.965 2.54219C133.368 2.83909 133.753 3.14527 134.12 3.48856C134.477 3.82257 134.816 4.18442 135.137 4.5741C135.448 4.9545 135.732 5.34418 136.007 5.7617C136.273 6.17921 136.566 6.57817 136.877 6.95857C137.17 7.32042 137.491 7.67299 137.83 7.99772C138.151 8.31318 138.481 8.6008 138.838 8.86987C139.012 8.99976 139.186 9.12038 139.36 9.24099C139.525 9.35233 139.699 9.46367 139.873 9.56573C140.047 9.66778 140.221 9.75129 140.395 9.83479C140.57 9.91829 140.744 9.99252 140.918 10.0482C141.092 10.1131 141.266 10.1595 141.431 10.2059C141.568 10.243 141.715 10.2709 141.852 10.2894C142.017 10.3173 142.191 10.3358 142.356 10.3358C142.521 10.3358 142.686 10.3358 142.851 10.308C142.924 10.2894 143.007 10.2801 143.089 10.2616C143.171 10.243 143.245 10.2152 143.327 10.1966C143.483 10.1502 143.63 10.0853 143.776 10.0111C143.923 9.93685 144.06 9.84407 144.179 9.74201C144.308 9.63995 144.436 9.51933 144.546 9.38944C144.656 9.25955 144.756 9.1111 144.848 8.96265C144.949 8.80492 145.022 8.62863 145.095 8.45235C145.132 8.35957 145.169 8.26679 145.196 8.17401C145.26 7.98845 145.306 7.7936 145.352 7.59876C145.398 7.37609 145.425 7.14414 145.444 6.92146C145.471 6.67095 145.48 6.41116 145.48 6.16066V0.17627H185.279V33.0579H203.154H203.135ZM128.586 14.1955C128.696 13.713 128.751 13.2213 128.742 12.7388C128.742 12.4976 128.742 12.2749 128.705 12.043C128.677 11.8203 128.632 11.5884 128.586 11.375C128.531 11.1523 128.458 10.9389 128.384 10.7255C128.302 10.5121 128.21 10.3173 128.1 10.1224C128 9.91829 127.88 9.74201 127.743 9.55645C127.651 9.43583 127.56 9.32449 127.459 9.21316C127.303 9.05543 127.138 8.8977 126.955 8.75853C126.772 8.61936 126.579 8.49874 126.387 8.3874C126.176 8.27607 125.956 8.18329 125.737 8.11834C125.498 8.03484 125.251 7.97917 125.013 7.94205C124.747 7.89566 124.481 7.87711 124.225 7.87711H117.518V18.0738H124.225C124.491 18.0738 124.756 18.0552 125.013 17.9995C125.141 17.981 125.26 17.9531 125.388 17.916C125.507 17.8789 125.627 17.8418 125.737 17.7954C125.966 17.7119 126.185 17.6099 126.387 17.4707C126.589 17.3501 126.781 17.2016 126.955 17.0532C127.129 16.9047 127.303 16.7284 127.45 16.5429C127.551 16.4223 127.651 16.2924 127.743 16.1625C127.871 15.9583 128 15.7542 128.1 15.5408C128.21 15.3274 128.302 15.1048 128.384 14.8821C128.458 14.6501 128.531 14.4182 128.586 14.1862V14.1955ZM25.653 20.4304C25.653 20.0222 25.6347 19.6046 25.5981 19.1964C25.5706 18.7975 25.5156 18.3985 25.4423 17.9995C25.369 17.6099 25.2866 17.2294 25.1858 16.8398C25.085 16.4686 24.9659 16.0975 24.8376 15.7357C24.7002 15.3738 24.5536 15.0213 24.3795 14.678C24.2146 14.3347 24.0314 14.0099 23.839 13.6852C23.6466 13.3605 23.4359 13.0543 23.2068 12.7574C22.9778 12.4605 22.7396 12.1822 22.4739 11.9038C22.2174 11.6347 21.9517 11.375 21.6585 11.1337C21.3745 10.8925 21.0721 10.6605 20.7606 10.4471C20.44 10.2337 20.1193 10.0389 19.7803 9.85335C19.4322 9.66778 19.084 9.50078 18.7267 9.35233C18.3511 9.1946 17.9754 9.06471 17.5998 8.95337C17.2059 8.83275 16.8027 8.73997 16.3996 8.65647C15.9782 8.58224 15.5567 8.5173 15.1261 8.48019C14.6864 8.43379 14.2374 8.41524 13.7977 8.41524H9.27174V32.492H13.7977C14.2008 32.492 14.6131 32.4734 15.0253 32.4363C15.4285 32.3992 15.8224 32.3435 16.2164 32.2693C16.6103 32.1951 16.986 32.1116 17.3708 32.0002C17.7464 31.8982 18.1037 31.7683 18.4702 31.6291C18.8367 31.4899 19.1756 31.3322 19.5146 31.1559C19.8536 30.9889 20.1743 30.8033 20.4949 30.5899C20.8156 30.3858 21.1179 30.1631 21.4111 29.9312C21.7043 29.69 21.9792 29.4395 22.2448 29.1797C22.5105 28.9106 22.7671 28.6323 23.0053 28.3446C23.2435 28.0477 23.4725 27.7416 23.6833 27.4354C23.894 27.1106 24.0955 26.7766 24.2696 26.4333C24.4528 26.0808 24.6178 25.7282 24.7643 25.3664C24.9109 24.986 25.0392 24.6148 25.1491 24.2251C25.2682 23.8262 25.3599 23.4272 25.4332 23.019C25.5156 22.6015 25.5706 22.1747 25.6072 21.7479C25.653 21.3118 25.6714 20.8665 25.6714 20.4118L25.653 20.4304Z" fill="white"/>
</svg>
