<svg width="49" height="54" viewBox="0 0 49 54" fill="none" xmlns="http://www.w3.org/2000/svg">
<path fill-rule="evenodd" clip-rule="evenodd" d="M31.7323 53.9132C42.5521 49.5053 48.9985 39.2611 49 28.0072C49 28.0085 49 28.0098 49 28.0112V28.0031C49 28.0044 49 28.0058 49 28.0072C48.9979 12.6374 36.8905 0.705288 21.0046 0.0405366C20.5343 0.00810682 20.0558 0 19.5773 0H0V31.4895H10.9766C10.7328 30.7847 10.4403 30.1122 10.1316 29.4559L10.1218 29.434C9.26298 27.5193 8.2954 25.362 8.2954 22.6177C8.27915 17.5296 11.5453 12.9924 16.4039 11.3882C22.595 9.34645 29.2898 12.6926 31.3454 18.8745C32.2391 21.4753 35.6272 23.3469 39.3971 22.6177C39.8033 22.6015 40.1852 22.7474 40.4614 23.039C40.7539 23.3226 40.9083 23.6953 40.9083 24.1004C40.9083 28.3135 33.5391 29.8448 29.3061 30.0231C23.9194 30.3796 24.0412 34.6899 28.8023 41.0176C31.0042 43.7562 32.1416 47.1915 32.0116 50.7078C32.0116 51.8399 31.9159 52.9084 31.7323 53.9132Z" fill="white"/>
<path d="M22.5421 20.6635C23.5795 20.6635 24.4206 19.8225 24.4206 18.785C24.4206 17.7475 23.5795 16.9065 22.5421 16.9065C21.5046 16.9065 20.6636 17.7475 20.6636 18.785C20.6636 19.8225 21.5046 20.6635 22.5421 20.6635Z" fill="#FA4135"/>
</svg>
